<svg width="4640" height="2560" viewBox="0 0 4640 2560" fill="none" xmlns="http://www.w3.org/2000/svg">
<path d="M400 400H4240V2560H400V400Z" fill="#B4CED9"/>
<g style="mix-blend-mode:overlay" filter="url(#filter0_f_9_2)">
<path d="M1097.19 1892.57C523.473 2016.67 393.511 1447.86 400.244 1147.95C400.244 905.95 683.065 701.181 779.022 825.283C874.979 949.386 1273.96 1147.95 1789.09 701.181C2304.23 254.412 3430.46 347.489 3895.1 701.181C4359.73 1054.87 4264.66 1541.95 4127.41 1607.13C3928.12 1701.78 3516.58 1400.36 3208.51 1245.23C2962.05 1121.13 2298.7 1228.18 2009.14 1331.6C1789.26 1410.14 1670.92 1768.46 1097.19 1892.57Z" fill="#BF7885"/>
</g>
<g filter="url(#filter1_f_9_2)">
<path d="M1111.59 1714C1038.97 1724.37 965.713 1735.36 892.48 1740.22C867.975 1740.22 564.925 1686.63 717.975 1287.78C761.976 1173.11 860.376 1125.79 1005.98 1253.79C1151.58 1381.79 1170.21 1400.82 1176.98 1394.89C1215.2 1425.95 1290.66 1410.62 1332.04 1394.89C1400.46 1368.87 1469.15 1332.88 1527.15 1287.78C1561.99 1260.67 1592.32 1224.71 1624.26 1194C1653.43 1165.95 1685.48 1140.55 1714.04 1112C1766.41 1059.63 1823.87 1007.45 1884.04 964C1950.88 915.725 2028.3 887.228 2104.92 858C2170.25 833.082 2232.54 799.175 2296.04 770C2316.21 760.729 2339.15 756.87 2360.04 749.111C2399.73 734.369 2439.11 718.793 2479.15 705.111C2625.67 682.162 2987.33 639.767 3261.81 653.777C3333.95 655.868 3405.91 660.069 3478.04 662.222C3551.95 664.428 3625.99 669.741 3697.37 689.777C3799.23 718.368 3904.22 761.623 3964.04 853.111C4003.26 913.106 4007.53 992.994 3999.81 1062.44C3988.91 1160.55 3924.18 1246.16 3854.04 1311.78C3783.09 1378.15 3695.59 1426.83 3604.93 1461.11C3544.15 1484.09 3482.3 1501.99 3418.26 1513.11C3341.1 1526.51 3254.78 1517.87 3177.29 1510.12L3176.04 1510C3079.2 1500.32 2991.36 1471.21 2901.37 1436C2815.84 1402.53 2734.22 1364.22 2658.04 1312.22C2556.55 1242.96 2446.59 1176.16 2327.81 1142.22C2194.71 1104.19 2030.51 1115.8 1904.92 1173.11C1848.09 1199.04 1804.81 1234.37 1756.48 1272.67C1661.09 1348.25 1587.71 1446.37 1492.04 1521.11C1455.05 1550.01 1415.19 1574.95 1378.26 1604C1344.79 1630.33 1312.95 1659.31 1274.26 1678C1224.19 1702.18 1165.89 1706.24 1111.59 1714Z" fill="#F26E50" fill-opacity="0.42"/>
</g>
<g style="mix-blend-mode:overlay" filter="url(#filter2_f_9_2)">
<path d="M3479.21 906.383C2714.41 480.783 1613.88 1083.72 1159.21 1438.38C1034.23 1530.38 1219.21 1782.38 1555.21 1502.38C1824.01 1278.38 2859.21 1321.05 3343.21 1370.38C3707.21 1393.05 4244.01 1331.98 3479.21 906.383Z" fill="#F26E50"/>
</g>
<g style="mix-blend-mode:overlay" filter="url(#filter3_f_9_2)">
<ellipse cx="1994.5" cy="1278" rx="745.5" ry="734" fill="#FF900D"/>
</g>
<defs>
<filter id="filter0_f_9_2" x="0" y="1.14441e-05" width="4640" height="2310" filterUnits="userSpaceOnUse" color-interpolation-filters="sRGB">
<feFlood flood-opacity="0" result="BackgroundImageFix"/>
<feBlend mode="normal" in="SourceGraphic" in2="BackgroundImageFix" result="shape"/>
<feGaussianBlur stdDeviation="200" result="effect1_foregroundBlur_9_2"/>
</filter>
<filter id="filter1_f_9_2" x="275" y="251" width="4128" height="1889.22" filterUnits="userSpaceOnUse" color-interpolation-filters="sRGB">
<feFlood flood-opacity="0" result="BackgroundImageFix"/>
<feBlend mode="normal" in="SourceGraphic" in2="BackgroundImageFix" result="shape"/>
<feGaussianBlur stdDeviation="200" result="effect1_foregroundBlur_9_2"/>
</filter>
<filter id="filter2_f_9_2" x="720" y="360" width="3548.26" height="1670.69" filterUnits="userSpaceOnUse" color-interpolation-filters="sRGB">
<feFlood flood-opacity="0" result="BackgroundImageFix"/>
<feBlend mode="normal" in="SourceGraphic" in2="BackgroundImageFix" result="shape"/>
<feGaussianBlur stdDeviation="200" result="effect1_foregroundBlur_9_2"/>
</filter>
<filter id="filter3_f_9_2" x="849" y="144" width="2291" height="2268" filterUnits="userSpaceOnUse" color-interpolation-filters="sRGB">
<feFlood flood-opacity="0" result="BackgroundImageFix"/>
<feBlend mode="normal" in="SourceGraphic" in2="BackgroundImageFix" result="shape"/>
<feGaussianBlur stdDeviation="200" result="effect1_foregroundBlur_9_2"/>
</filter>
</defs>
</svg>
